<svg width="509" height="509" viewBox="0 0 509 509" fill="none" xmlns="http://www.w3.org/2000/svg">
<circle cx="254.5" cy="254.5" r="254.5" fill="#163457"/>
<path d="M111.433 365.5V163.526H245.63V196.059H148.303V247.84H240.208V280.373H148.303V332.967H245.63V365.5H111.433ZM340.714 368.753C326.074 368.753 312.88 365.41 301.132 358.722C289.565 351.854 280.438 342.637 273.751 331.07C267.063 319.322 263.72 306.128 263.72 291.488C263.72 276.848 267.063 263.745 273.751 252.178C280.438 240.611 289.565 231.483 301.132 224.796C312.88 218.109 326.074 214.765 340.714 214.765C351.197 214.765 360.956 216.663 369.993 220.459C379.03 224.073 386.802 229.134 393.308 235.64C399.996 241.966 404.785 249.557 407.677 258.413L376.5 271.969C373.789 264.558 369.18 258.594 362.673 254.076C356.348 249.557 349.028 247.298 340.714 247.298C332.942 247.298 325.984 249.196 319.839 252.991C313.874 256.787 309.175 262.028 305.741 268.715C302.307 275.403 300.59 283.084 300.59 291.759C300.59 300.435 302.307 308.116 305.741 314.803C309.175 321.491 313.874 326.732 319.839 330.527C325.984 334.323 332.942 336.221 340.714 336.221C349.208 336.221 356.619 333.961 362.944 329.443C369.27 324.925 373.789 318.87 376.5 311.279L407.677 325.376C404.785 333.69 400.086 341.191 393.579 347.878C387.073 354.385 379.301 359.536 370.264 363.331C361.227 366.946 351.377 368.753 340.714 368.753Z" fill="white"/>
</svg>
